<?xml version="1.0" encoding="UTF-8"?>
<svg width="80px" height="80px" viewBox="0 0 80 80" version="1.1" xmlns="http://www.w3.org/2000/svg" xmlns:xlink="http://www.w3.org/1999/xlink">
    <title>webhooks</title>
    <g id="Page-1" stroke="none" stroke-width="1" fill="none" fill-rule="evenodd">
        <g id="webhooks" transform="translate(4.000000, 7.000000)" fill-rule="nonzero">
            <path d="M33.4293593,27.7599853 C30.4458304,32.7346322 27.5874353,37.5519735 24.6694259,42.3330565 C23.9200286,43.5605414 23.5491262,44.5604354 24.1478004,46.1206605 C25.8006923,50.4309426 23.4689843,54.6254769 19.086768,55.7639894 C14.9539758,56.8380736 10.9274771,54.1440775 10.1074987,49.7554215 C9.38087869,45.8710356 12.4200852,42.0630712 16.738188,41.4558831 C17.0998108,41.4045636 17.4693072,41.3987065 18.077261,41.353523 L24.6455239,30.4291584 C20.5144189,26.3548345 18.0556086,21.5924385 18.5997301,15.6906933 C18.9844113,11.5190296 20.638428,7.91383309 23.6613249,4.95905575 C29.451227,-0.69947953 38.2842723,-1.61570037 45.1016782,2.72749321 C51.6491323,6.89943577 54.647846,15.0257707 52.0917406,21.9809607 C50.1643978,21.4627451 48.2235574,20.9400669 46.0900952,20.3660692 C46.8926391,16.4989758 46.2990265,13.0265406 43.669528,10.0516817 C41.9322762,8.08759431 39.7029249,7.05813582 37.1681907,6.6788176 C32.0863495,5.91739207 27.097023,9.15554243 25.6165065,14.1028561 C23.936057,19.7173235 26.4795084,24.3040059 33.4293593,27.7602642 L33.4293593,27.7599853 Z" id="Path" fill="#59A869"></path>
            <path d="M42.3645415,21.5992973 C44.4697048,25.281233 46.6072552,29.0187314 48.725655,32.721887 C59.4331211,29.4375457 67.5062464,35.314068 70.4025005,41.6054957 C73.9008735,49.2052991 71.5092954,58.206455 64.6389998,62.8952201 C57.5870548,67.7082335 48.6687663,66.8859615 42.4208669,60.7031463 C44.0131871,59.3816478 45.6133928,58.0542858 47.3231515,56.6361808 C53.4941667,60.598722 58.891552,60.41221 62.8985438,55.7198152 C66.3155266,51.7167886 66.2414586,45.7481271 62.725343,41.8291425 C58.6676584,37.3067862 53.2325351,37.1688567 46.6627358,41.510006 C43.9374294,36.7165373 41.1648096,31.9613203 38.5256811,27.1332296 C37.6357392,25.5059967 36.6534235,24.5617101 34.6476746,24.2174448 C31.2982823,23.6417148 29.1359487,20.7901482 29.0061186,17.5954331 C28.8785414,14.4358984 30.75615,11.5798644 33.6907054,10.4672145 C36.5976613,9.36461623 40.0090116,10.2544569 41.9643492,12.7047995 C43.5623019,14.7067316 44.0700758,16.9599523 43.229137,19.4290019 C42.9953864,20.1175325 42.6926372,20.7837264 42.3645415,21.5995766 L42.3645415,21.5992973 Z" id="Path" fill="#EDA200"></path>
            <path d="M46.9172023,51.9169367 L34.1126467,51.9169367 C32.8853453,56.9960272 30.2343519,61.0966806 25.6667316,63.7043449 C22.1157544,65.731027 18.2886554,66.4181285 14.2153688,65.7563605 C6.71559755,64.5395068 0.583286872,57.7464626 0.0433525833,50.0974266 C-0.567640415,41.4322347 5.35177389,33.7299983 13.2418085,32 C13.7864987,33.9903707 14.3370638,35.9998823 14.881754,37.9854678 C7.64271788,41.7016146 5.13719897,46.3838131 7.16321147,52.2386725 C8.94667318,57.3909487 14.0128235,60.2150739 19.5137188,59.1229175 C25.1312734,58.0076794 27.9635505,53.3102807 27.6177687,45.7715863 C32.9432553,45.7715863 38.2732181,45.716134 43.5992642,45.7988902 C45.6789903,45.8318238 47.2845255,45.6147999 48.8511742,43.7699562 C51.4305494,40.7344368 56.1783343,41.0083204 58.9563382,43.8752311 C61.7953295,46.8051941 61.6593667,51.5194818 58.6550381,54.3258736 C55.7564582,57.033746 51.1770881,56.8890634 48.4651072,53.9712042 C47.9078279,53.3699552 47.4686067,52.6558312 46.9172023,51.9169367 Z" id="Path" fill="#389FD6"></path>
        </g>
    </g>
</svg>